<?xml version="1.0" encoding="utf-8"?>
<!-- Generator: Adobe Illustrator 28.3.0, SVG Export Plug-In . SVG Version: 6.00 Build 0)  -->
<svg version="1.1" id="Layer_1" xmlns="http://www.w3.org/2000/svg" xmlns:xlink="http://www.w3.org/1999/xlink" x="0px" y="0px"
	 viewBox="0 0 352.2 142.1" style="enable-background:new 0 0 352.2 142.1;" xml:space="preserve">
<style type="text/css">
	.st0{fill:#1A65AB;}
	.st1{fill-rule:evenodd;clip-rule:evenodd;fill:#FFFFFF;}
	.st2{fill:#FFFFFF;}
	.st3{opacity:0.2;fill-rule:evenodd;clip-rule:evenodd;fill:#FFFFFF;}
	.st4{opacity:0.4;fill-rule:evenodd;clip-rule:evenodd;fill:#FFFFFF;}
	.st5{opacity:0.6;fill-rule:evenodd;clip-rule:evenodd;fill:#FFFFFF;}
	.st6{opacity:0.7;fill-rule:evenodd;clip-rule:evenodd;fill:#FFFFFF;}
	.st7{opacity:0.8;fill-rule:evenodd;clip-rule:evenodd;fill:#FFFFFF;}
</style>
<g>
	<path class="st1" d="M287.8,89.2C287.8,89.2,287.8,89.2,287.8,89.2L287.8,89.2C287.8,89.2,287.8,89.2,287.8,89.2L287.8,89.2
		C287.8,89.2,287.8,89.2,287.8,89.2h-7c-0.3,0-0.6-0.3-0.6-0.6V53.4c0-0.3,0.3-0.6,0.6-0.6h6.4c0.3,0,0.6,0.3,0.6,0.6v22.1
		l15.2-22.7c0,0,0,0,0,0c0,0,0,0,0,0h7c0.3,0,0.6,0.3,0.6,0.6v35.2c0,0.3-0.3,0.6-0.6,0.6h-6.4c-0.3,0-0.6-0.3-0.6-0.6V66.4
		L287.8,89.2C287.8,89.2,287.8,89.2,287.8,89.2L287.8,89.2C287.8,89.2,287.8,89.2,287.8,89.2z"/>
	<path class="st1" d="M239.3,53.4c0-0.3,0.3-0.6,0.6-0.6h27.6c0.3,0,0.6,0.3,0.6,0.6v6.4c0,0.3-0.3,0.6-0.6,0.6h-10v28.2
		c0,0.3-0.3,0.6-0.6,0.6h-6.4c-0.3,0-0.6-0.3-0.6-0.6V60.3h-10c-0.3,0-0.6-0.3-0.6-0.6V53.4z"/>
	<path class="st2" d="M214.9,68.9l6.8-15.8c0.1-0.2,0.3-0.4,0.6-0.4h6.9c0.4,0,0.7,0.4,0.6,0.8l-12.4,28.7
		c-1.8,4.2-5.9,6.9-10.4,6.9h-2.3c-0.3,0-0.6-0.3-0.6-0.6v-6.4c0-0.3,0.3-0.6,0.6-0.6h2.3c1.5,0,2.9-0.9,3.5-2.3L211,78l-12.3-24.4
		c-0.2-0.4,0.1-0.9,0.5-0.9h7.1c0.2,0,0.4,0.1,0.5,0.3L214.9,68.9z"/>
	<path class="st1" d="M165,53.4c0-0.3,0.3-0.6,0.6-0.6h23.2c0.3,0,0.6,0.3,0.6,0.6v6.4c0,0.3-0.3,0.6-0.6,0.6h-16.2v28.2
		c0,0.3-0.3,0.6-0.6,0.6h-6.4c-0.3,0-0.6-0.3-0.6-0.6V53.4z"/>
	<path class="st1" d="M122.5,53.4c0-0.3,0.3-0.6,0.6-0.6h29.1c0.3,0,0.6,0.3,0.6,0.6v35.2c0,0.3-0.3,0.6-0.6,0.6h-6.4
		c-0.3,0-0.6-0.3-0.6-0.6V60.3h-15.2v28.2c0,0.3-0.3,0.6-0.6,0.6h-6.4c-0.3,0-0.6-0.3-0.6-0.6V53.4z"/>
	<path class="st1" d="M83.1,63.4c0,2.5-2,4.5-4.5,4.5c-2.5,0-4.5-2-4.5-4.5c0-2.5,2-4.5,4.5-4.5C81.1,58.8,83.1,60.9,83.1,63.4z
		 M86.1,64.9c0,5-4.1,9.1-9.1,9.1c-5,0-9.1-4.1-9.1-9.1c0-5,4.1-9.1,9.1-9.1C82,55.8,86.1,59.9,86.1,64.9z M77,75.5
		c5.9,0,10.6-4.8,10.6-10.6c0-5.9-4.8-10.6-10.6-10.6c-5.9,0-10.6,4.8-10.6,10.6C66.4,70.8,71.2,75.5,77,75.5z M75.5,81.6
		c8.4,0,15.2-6.8,15.2-15.2c0-8.4-6.8-15.2-15.2-15.2c-8.4,0-15.2,6.8-15.2,15.2C60.3,74.8,67.1,81.6,75.5,81.6z M92.2,66.4
		c0,9.2-7.5,16.7-16.7,16.7s-16.7-7.5-16.7-16.7c0-9.2,7.5-16.7,16.7-16.7S92.2,57.2,92.2,66.4z M95.2,67.9
		c0,11.7-9.5,21.2-21.2,21.2s-21.2-9.5-21.2-21.2c0-11.7,9.5-21.2,21.2-21.2S95.2,56.2,95.2,67.9z M74,90.7
		c12.6,0,22.7-10.2,22.7-22.7c0-12.6-10.2-22.7-22.7-22.7S51.2,55.4,51.2,67.9C51.2,80.5,61.4,90.7,74,90.7z M72.5,96.7
		c15.1,0,27.3-12.2,27.3-27.3S87.5,42.2,72.5,42.2S45.2,54.4,45.2,69.4S57.4,96.7,72.5,96.7z M72.5,98.6c15.9,0,28.8-12.9,28.8-28.8
		S88.4,40.9,72.5,40.9S43.7,53.8,43.7,69.7S56.6,98.6,72.5,98.6z M71,104.3c18.4,0,33.4-14.9,33.4-33.4c0-18.4-14.9-33.4-33.4-33.4
		S37.6,52.5,37.6,71C37.6,89.4,52.5,104.3,71,104.3z M71,105.5c19.1,0,34.6-15.5,34.6-34.6S90.1,36.4,71,36.4S36.4,51.9,36.4,71
		S51.9,105.5,71,105.5z"/>
	<circle class="st2" cx="78.5" cy="63.4" r="4.5"/>
	<path class="st3" d="M72.5,98.6c15.9,0,28.8-12.9,28.8-28.8S88.4,40.9,72.5,40.9S43.7,53.8,43.7,69.7S56.6,98.6,72.5,98.6z
		 M71,104.3c18.4,0,33.4-14.9,33.4-33.4c0-18.4-14.9-33.4-33.4-33.4S37.6,52.5,37.6,71C37.6,89.4,52.5,104.3,71,104.3z"/>
	<path class="st4" d="M74,90.7c12.6,0,22.7-10.2,22.7-22.7c0-12.6-10.2-22.7-22.7-22.7S51.2,55.4,51.2,67.9
		C51.2,80.5,61.4,90.7,74,90.7z M72.5,96.7c15.1,0,27.3-12.2,27.3-27.3S87.5,42.2,72.5,42.2S45.2,54.4,45.2,69.4
		S57.4,96.7,72.5,96.7z"/>
	<path class="st5" d="M75.5,83.1c9.2,0,16.7-7.5,16.7-16.7c0-9.2-7.5-16.7-16.7-16.7c-9.2,0-16.7,7.5-16.7,16.7
		C58.8,75.6,66.3,83.1,75.5,83.1z M74,89.2c11.7,0,21.2-9.5,21.2-21.2c0-11.7-9.5-21.2-21.2-21.2s-21.2,9.5-21.2,21.2
		C52.8,79.7,62.3,89.2,74,89.2z"/>
	<path class="st6" d="M77,75.5c5.9,0,10.6-4.8,10.6-10.6c0-5.9-4.8-10.6-10.6-10.6c-5.9,0-10.6,4.8-10.6,10.6
		C66.4,70.8,71.2,75.5,77,75.5z M75.5,81.6c8.4,0,15.2-6.8,15.2-15.2c0-8.4-6.8-15.2-15.2-15.2c-8.4,0-15.2,6.8-15.2,15.2
		C60.3,74.8,67.1,81.6,75.5,81.6z"/>
	<path class="st7" d="M78.5,67.9c2.5,0,4.5-2,4.5-4.5c0-2.5-2-4.5-4.5-4.5c-2.5,0-4.5,2-4.5,4.5C74,65.9,76,67.9,78.5,67.9z M77,74
		c5,0,9.1-4.1,9.1-9.1c0-5-4.1-9.1-9.1-9.1c-5,0-9.1,4.1-9.1,9.1C67.9,69.9,72,74,77,74z"/>
</g>
</svg>
