<?xml version="1.0" encoding="utf-8"?>
<!-- Generator: Adobe Illustrator 28.3.0, SVG Export Plug-In . SVG Version: 6.00 Build 0)  -->
<svg version="1.1" id="Layer_1" xmlns="http://www.w3.org/2000/svg" xmlns:xlink="http://www.w3.org/1999/xlink" x="0px" y="0px"
	 viewBox="0 0 352.2 142.1" style="enable-background:new 0 0 352.2 142.1;" xml:space="preserve">
<style type="text/css">
	.st0{fill-rule:evenodd;clip-rule:evenodd;fill:#1A65AB;}
	.st1{fill:#1A65AB;}
	.st2{opacity:0.2;fill:#58C1E8;}
	.st3{fill:#FFFFFF;}
	.st4{fill-rule:evenodd;clip-rule:evenodd;fill:#225B94;}
	.st5{fill-rule:evenodd;clip-rule:evenodd;fill:#2782C5;}
	.st6{fill-rule:evenodd;clip-rule:evenodd;fill:#2BA5DD;}
	.st7{fill-rule:evenodd;clip-rule:evenodd;fill:#58C1E8;}
	.st8{fill-rule:evenodd;clip-rule:evenodd;fill:#97D9F2;}
	.st9{fill-rule:evenodd;clip-rule:evenodd;fill:none;}
</style>
<g>
	<path class="st0" d="M291.9,89.6C291.9,89.6,291.9,89.6,291.9,89.6L291.9,89.6C291.9,89.6,291.9,89.6,291.9,89.6L291.9,89.6
		C291.9,89.6,291.9,89.6,291.9,89.6h-7.1c-0.3,0-0.6-0.3-0.6-0.6V53.1c0-0.3,0.3-0.6,0.6-0.6h6.5c0.3,0,0.6,0.3,0.6,0.6v22.5
		l15.4-23.2c0,0,0,0,0,0c0,0,0,0,0,0h7.1c0.3,0,0.6,0.3,0.6,0.6V89c0,0.3-0.3,0.6-0.6,0.6H308c-0.3,0-0.6-0.3-0.6-0.6V66.4
		L291.9,89.6C291.9,89.6,291.9,89.6,291.9,89.6L291.9,89.6C291.9,89.6,291.9,89.6,291.9,89.6z"/>
	<path class="st0" d="M242.5,53.1c0-0.3,0.3-0.6,0.6-0.6h28.1c0.3,0,0.6,0.3,0.6,0.6v6.5c0,0.3-0.3,0.6-0.6,0.6H261V89
		c0,0.3-0.3,0.6-0.6,0.6h-6.5c-0.3,0-0.6-0.3-0.6-0.6V60.2h-10.2c-0.3,0-0.6-0.3-0.6-0.6V53.1z"/>
	<path class="st1" d="M217.7,69l6.9-16.1c0.1-0.2,0.3-0.4,0.6-0.4h7.1c0.4,0,0.7,0.5,0.6,0.9l-12.6,29.2c-1.8,4.2-6,7-10.6,7h-2.3
		c-0.3,0-0.6-0.3-0.6-0.6v-6.5c0-0.3,0.3-0.6,0.6-0.6h2.3c1.5,0,2.9-0.9,3.5-2.3l0.6-1.3l-12.5-24.8c-0.2-0.4,0.1-0.9,0.6-0.9h7.3
		c0.2,0,0.4,0.1,0.6,0.3L217.7,69z"/>
	<path class="st0" d="M166.8,53.1c0-0.3,0.3-0.6,0.6-0.6h23.6c0.3,0,0.6,0.3,0.6,0.6v6.5c0,0.3-0.3,0.6-0.6,0.6h-16.5V89
		c0,0.3-0.3,0.6-0.6,0.6h-6.5c-0.3,0-0.6-0.3-0.6-0.6V53.1z"/>
	<path class="st0" d="M123.6,53.1c0-0.3,0.3-0.6,0.6-0.6h29.7c0.3,0,0.6,0.3,0.6,0.6V89c0,0.3-0.3,0.6-0.6,0.6h-6.5
		c-0.3,0-0.6-0.3-0.6-0.6V60.2h-15.4V89c0,0.3-0.3,0.6-0.6,0.6h-6.5c-0.3,0-0.6-0.3-0.6-0.6V53.1z"/>
	<circle class="st2" cx="71.1" cy="71.1" r="34"/>
	<circle class="st3" cx="77.7" cy="64.6" r="7.3"/>
	<path class="st4" d="M72.6,99.2c16.2,0,29.3-13.1,29.3-29.3c0-16.2-13.1-29.3-29.3-29.3S43.2,53.6,43.2,69.8
		C43.2,86,56.4,99.2,72.6,99.2z M71.1,105c18.8,0,34-15.2,34-34c0-18.8-15.2-34-34-34c-18.8,0-34,15.2-34,34
		C37.1,89.8,52.3,105,71.1,105z"/>
	<path class="st5" d="M74.1,91.1c12.8,0,23.2-10.4,23.2-23.2c0-12.8-10.4-23.2-23.2-23.2C61.3,44.8,51,55.2,51,68
		C51,80.8,61.3,91.1,74.1,91.1z M72.6,97.3c15.4,0,27.8-12.4,27.8-27.8c0-15.4-12.4-27.8-27.8-27.8c-15.4,0-27.8,12.4-27.8,27.8
		C44.8,84.9,57.2,97.3,72.6,97.3z"/>
	<path class="st6" d="M75.7,83.4c9.4,0,17-7.6,17-17c0-9.4-7.6-17-17-17c-9.4,0-17,7.6-17,17C58.7,75.8,66.3,83.4,75.7,83.4z
		 M74.1,89.6c11.9,0,21.6-9.7,21.6-21.6c0-11.9-9.7-21.6-21.6-21.6C62.2,46.3,52.5,56,52.5,68C52.5,79.9,62.2,89.6,74.1,89.6z"/>
	<path class="st7" d="M77.2,75.7c6,0,10.8-4.8,10.8-10.8c0-6-4.8-10.8-10.8-10.8c-6,0-10.8,4.8-10.8,10.8
		C66.4,70.8,71.3,75.7,77.2,75.7z M75.7,81.9c8.5,0,15.4-6.9,15.4-15.4c0-8.5-6.9-15.4-15.4-15.4c-8.5,0-15.4,6.9-15.4,15.4
		C60.2,74.9,67.2,81.9,75.7,81.9z"/>
	<path class="st8" d="M78.8,68c2.6,0,4.6-2.1,4.6-4.6c0-2.6-2.1-4.6-4.6-4.6c-2.6,0-4.6,2.1-4.6,4.6C74.1,65.9,76.2,68,78.8,68z
		 M77.2,74.1c5.1,0,9.3-4.1,9.3-9.3c0-5.1-4.1-9.3-9.3-9.3c-5.1,0-9.3,4.1-9.3,9.3C68,70,72.1,74.1,77.2,74.1z"/>
	<rect class="st9" width="352.2" height="142.1"/>
</g>
</svg>
